HIERARCHY
ROOT Hips
{
	OFFSET 0.000000 89.005402 0.000000
	CHANNELS 6 Xposition Yposition Zposition Xrotation Yrotation Zrotation
	JOINT Spine
	{
		OFFSET 0.116900 10.681000 0.373400
		CHANNELS 3 Xrotation Yrotation Zrotation
		JOINT Spine1
		{
			OFFSET 0.000000 13.840401 0.053500
			CHANNELS 3 Xrotation Yrotation Zrotation
			JOINT Spine2
			{
				OFFSET 0.000000 14.712700 -0.366200
				CHANNELS 3 Xrotation Yrotation Zrotation
				JOINT Neck
				{
					OFFSET 0.000000 35.415497 -3.314200
					CHANNELS 3 Xrotation Yrotation Zrotation
					JOINT Head
					{
						OFFSET 0.000000 16.899200 1.218300
						CHANNELS 3 Xrotation Yrotation Zrotation
						JOINT HeadTop_End
						{
							OFFSET 0.000000 22.206207 2.192500
							CHANNELS 3 Xrotation Yrotation Zrotation
							End Site
							{
								OFFSET 0.000000 22.314178 0.000000
							}
						}
					}
				}
				JOINT LeftShoulder
				{
					OFFSET 12.896400 26.716293 -4.548400
					CHANNELS 3 Xrotation Yrotation Zrotation
					JOINT LeftArm
					{
						OFFSET 19.027000 -4.857010 -1.718400
						CHANNELS 3 Xrotation Yrotation Zrotation
						JOINT LeftForeArm
						{
							OFFSET 24.179897 0.000000 0.000000
							CHANNELS 3 Xrotation Yrotation Zrotation
							JOINT LeftHand
							{
								OFFSET 27.156403 0.000000 0.000000
								CHANNELS 3 Xrotation Yrotation Zrotation
								JOINT LeftHandIndex1
								{
									OFFSET 16.441200 0.000000 0.000000
									CHANNELS 3 Xrotation Yrotation Zrotation
									JOINT LeftHandIndex2
									{
										OFFSET 4.821899 0.000000 0.000000
										CHANNELS 3 Xrotation Yrotation Zrotation
										JOINT LeftHandIndex3
										{
											OFFSET 6.386497 0.000000 0.000000
											CHANNELS 3 Xrotation Yrotation Zrotation
											JOINT LeftHandIndex4
											{
												OFFSET 5.188988 0.000000 0.000000
												CHANNELS 3 Xrotation Yrotation Zrotation
												End Site
												{
													OFFSET -0.178703 5.185913 0.000177
												}
											}
										}
									}
								}
								JOINT LeftHandThumb1
								{
									OFFSET 6.534897 -5.032593 5.900300
									CHANNELS 3 Xrotation Yrotation Zrotation
									JOINT LeftHandThumb2
									{
										OFFSET 3.818176 -2.204422 2.204423
										CHANNELS 3 Xrotation Yrotation Zrotation
										JOINT LeftHandThumb3
										{
											OFFSET 3.252098 -1.877594 1.877601
											CHANNELS 3 Xrotation Yrotation Zrotation
											JOINT LeftHandThumb4
											{
												OFFSET 5.251778 -3.032120 3.032117
												CHANNELS 3 Xrotation Yrotation Zrotation
												End Site
												{
													OFFSET 0.000023 6.780014 0.000000
												}
											}
										}
									}
								}
							}
						}
					}
				}
				JOINT RightShoulder
				{
					OFFSET -12.896300 26.716293 -4.548400
					CHANNELS 3 Xrotation Yrotation Zrotation
					JOINT RightArm
					{
						OFFSET -19.027000 -4.857010 -1.718400
						CHANNELS 3 Xrotation Yrotation Zrotation
						JOINT RightForeArm
						{
							OFFSET -24.179897 0.000000 0.000000
							CHANNELS 3 Xrotation Yrotation Zrotation
							JOINT RightHand
							{
								OFFSET -27.156403 0.000000 0.000000
								CHANNELS 3 Xrotation Yrotation Zrotation
								JOINT RightHandThumb1
								{
									OFFSET -6.591202 -4.852203 5.988100
									CHANNELS 3 Xrotation Yrotation Zrotation
									JOINT RightHandThumb2
									{
										OFFSET -3.818176 -2.204422 2.204423
										CHANNELS 3 Xrotation Yrotation Zrotation
										JOINT RightHandThumb3
										{
											OFFSET -3.252098 -1.877594 1.877601
											CHANNELS 3 Xrotation Yrotation Zrotation
											JOINT RightHandThumb4
											{
												OFFSET -5.251778 -3.032120 3.032117
												CHANNELS 3 Xrotation Yrotation Zrotation
												End Site
												{
													OFFSET -0.000023 6.780014 0.000000
												}
											}
										}
									}
								}
								JOINT RightHandIndex1
								{
									OFFSET -16.029404 0.000000 0.000000
									CHANNELS 3 Xrotation Yrotation Zrotation
									JOINT RightHandIndex2
									{
										OFFSET -5.213303 0.000000 0.000000
										CHANNELS 3 Xrotation Yrotation Zrotation
										JOINT RightHandIndex3
										{
											OFFSET -6.386528 0.000000 0.000000
											CHANNELS 3 Xrotation Yrotation Zrotation
											JOINT RightHandIndex4
											{
												OFFSET -5.189026 0.000000 0.000000
												CHANNELS 3 Xrotation Yrotation Zrotation
												End Site
												{
													OFFSET 0.236702 5.183624 0.001972
												}
											}
										}
									}
								}
							}
						}
					}
				}
			}
		}
	}
	JOINT LeftUpLeg
	{
		OFFSET 14.073000 -7.904099 -1.463000
		CHANNELS 3 Xrotation Yrotation Zrotation
		JOINT LeftLeg
		{
			OFFSET -0.109806 -34.073280 4.093200
			CHANNELS 3 Xrotation Yrotation Zrotation
			JOINT LeftFoot
			{
				OFFSET 0.109806 -29.899420 -6.319000
				CHANNELS 3 Xrotation Yrotation Zrotation
				JOINT LeftToeBase
				{
					OFFSET 1.551100 -14.988700 20.535801
					CHANNELS 3 Xrotation Yrotation Zrotation
					JOINT LeftToe_End
					{
						OFFSET 0.221200 0.570800 13.248301
						CHANNELS 3 Xrotation Yrotation Zrotation
						End Site
						{
							OFFSET 0.000000 13.262435 0.000000
						}
					}
				}
			}
		}
	}
	JOINT RightUpLeg
	{
		OFFSET -13.839300 -7.904099 -1.463000
		CHANNELS 3 Xrotation Yrotation Zrotation
		JOINT RightLeg
		{
			OFFSET 0.109694 -34.073219 4.093300
			CHANNELS 3 Xrotation Yrotation Zrotation
			JOINT RightFoot
			{
				OFFSET -0.109694 -29.899384 -6.319200
				CHANNELS 3 Xrotation Yrotation Zrotation
				JOINT RightToeBase
				{
					OFFSET -1.551100 -14.988700 20.535801
					CHANNELS 3 Xrotation Yrotation Zrotation
					JOINT RightToe_End
					{
						OFFSET -0.221200 0.570900 13.248299
						CHANNELS 3 Xrotation Yrotation Zrotation
						End Site
						{
							OFFSET 0.000000 13.262440 0.000000
						}
					}
				}
			}
		}
	}
}
MOTION
Frames: 8
Frame Time: 0.033333
0.020082 69.925995 12.306720 23.594967 28.405802 -10.351222 16.754312 4.938845 -1.249327 17.958483 11.483939 -9.398979 6.874757 13.693279 -5.417075 0.344591 -3.696357 -0.790621 -8.409787 5.878792 3.479306 0.000001 -0.000002 -0.000001 -0.117475 8.125947 -2.201306 11.016113 19.993782 -63.691446 29.249592 -22.337077 -11.360573 -11.539242 -3.935502 10.000122 13.303053 -0.460545 -21.938224 1.756054 -0.370646 -52.603979 -1.439521 -2.199324 -61.421794 0.000000 -0.000000 0.000000 13.272399 18.047453 -5.436658 -4.135063 9.038101 4.467640 12.435035 -11.135662 13.902561 0.000001 0.000000 0.000002 9.378329 24.192113 6.577605 -15.202307 55.811713 17.064536 -362.652063 61.643639 347.628270 -55.377558 -57.412596 10.628995 55.149529 18.649567 -29.698308 -0.442540 -14.180551 7.313160 21.666984 -29.244469 9.142358 0.000001 0.000003 -0.000001 5.673389 7.585019 36.844151 1.050464 3.824503 68.900250 0.499584 3.026035 62.196454 0.000002 0.000000 0.000001 -76.865357 -11.371151 -23.111426 38.616162 -28.004576 8.766632 17.541941 8.739365 -13.482717 -0.625440 -4.213354 0.676837 -0.000000 0.000001 -0.000000 12.683444 -53.615226 -3.833416 34.763081 -1.457066 -4.057466 -28.011857 -6.031321 22.785245 -15.341493 -8.272886 18.871838 0.000000 0.000001 -0.000000 
0.145884 70.296501 11.859619 21.622186 26.679871 -9.932086 16.535550 4.716438 -1.186972 17.511913 11.183309 -9.321075 6.439405 13.383586 -5.399524 0.163317 -3.362874 -1.587368 -9.027170 3.968418 3.891535 0.000003 -0.000003 0.000003 -0.062695 7.220996 -2.191903 11.407117 20.140985 -64.178172 32.797295 -21.990871 -12.605589 -6.581942 -3.775628 8.816086 13.463821 -0.427577 -22.250007 1.755975 -0.415647 -53.249750 -1.471093 -2.215891 -62.298763 0.000001 0.000001 -0.000001 13.408421 18.631890 -5.822073 -4.112702 9.051585 4.519450 12.520148 -11.126869 13.942854 0.000001 0.000000 -0.000000 10.607013 23.985662 4.903007 -23.097652 58.965249 23.668286 -352.957101 56.083015 346.673710 -45.928917 -49.344845 16.332212 55.149533 18.649563 -29.698308 -0.442540 -14.180549 7.313155 21.666987 -29.244466 9.142360 -0.000000 -0.000001 0.000002 5.673393 7.585016 36.844151 1.050465 3.824503 68.900250 0.499584 3.026028 62.196454 0.000002 0.000003 -0.000001 -75.061313 -11.154537 -21.415865 39.057726 -27.856571 8.888814 17.377289 8.845263 -13.073044 -0.626487 -4.213348 0.676069 -0.000000 0.000000 -0.000000 11.496871 -53.252260 -5.879962 36.033524 -0.520926 -4.352522 -27.342770 -5.059192 22.497371 -16.133136 -8.088350 18.780309 -0.000000 -0.000002 0.000000 
0.388135 70.771217 11.235859 19.336213 24.431658 -9.294644 16.167519 4.463556 -1.009719 16.747883 10.879311 -9.021045 5.678689 13.028584 -5.162750 2.272777 -2.841770 -1.183965 -11.717187 2.731521 2.877829 -0.000000 0.000002 0.000000 0.046681 6.760509 -3.039545 11.276130 20.234562 -63.814594 36.127230 -22.328322 -12.810494 -1.492745 -3.583156 3.580399 13.517495 -0.353406 -22.431349 1.752965 -0.448919 -53.696348 -1.494680 -2.227893 -62.948137 0.000001 -0.000001 0.000001 13.556608 19.095539 -6.084140 -4.097667 9.060629 4.554081 12.577736 -11.121301 13.968710 -0.000000 -0.000001 0.000002 11.889052 23.169516 3.281566 -31.988392 62.941040 31.855579 -344.154026 49.315380 347.419047 -40.101547 -38.646344 17.253032 55.149529 18.649569 -29.698305 -0.442541 -14.180549 7.313160 21.666982 -29.244469 9.142360 0.000000 0.000001 -0.000003 5.673390 7.585020 36.844154 1.050466 3.824504 68.900250 0.499582 3.026030 62.196454 -0.000000 0.000003 0.000002 -72.704850 -10.462685 -19.380616 39.255935 -27.708966 9.116723 17.366176 8.943541 -12.547003 -0.627111 -4.213362 0.676051 0.000000 -0.000001 0.000000 10.200801 -52.198088 -8.192690 37.162045 -0.057873 -4.241956 -27.007441 -4.325066 21.612633 -16.093515 -7.502299 19.017707 0.000000 0.000001 -0.000000 
0.628810 71.320198 10.528399 16.827231 21.618679 -8.376186 15.801026 4.154940 -0.831516 15.988124 10.490485 -8.736603 4.926312 12.593280 -4.958158 4.755787 -1.500326 -1.551627 -15.210287 1.466157 2.896069 -0.000000 -0.000002 0.000002 0.140577 6.460042 -3.876218 10.721683 20.003225 -63.363467 38.586215 -23.832922 -11.649857 -0.044303 -0.995642 -4.578541 13.472530 -0.244441 -22.489540 1.748737 -0.467745 -53.946326 -1.510332 -2.235691 -63.371164 -0.000000 -0.000000 -0.000000 13.713913 19.435870 -6.232232 -4.091505 9.062854 4.573285 12.609118 -11.118253 13.982881 0.000002 -0.000003 0.000000 13.157312 22.810648 1.689519 -42.025638 65.785992 42.136134 -337.121444 43.552264 348.663098 -34.949344 -27.919725 14.274373 55.149533 18.649562 -29.698308 -0.442541 -14.180553 7.313158 21.666981 -29.244466 9.142358 0.000001 0.000000 -0.000002 5.673389 7.585020 36.844154 1.050467 3.824504 68.900250 0.499582 3.026038 62.196447 0.000000 -0.000000 0.000001 -69.929580 -9.315363 -17.002880 39.301277 -27.487167 9.405183 17.314449 9.095809 -12.007779 -0.628158 -4.213375 0.675260 -0.000000 0.000001 -0.000000 8.924474 -49.927850 -10.612161 38.161162 0.310947 -3.766155 -27.026574 -3.986686 20.348819 -15.749906 -6.820574 18.618406 -0.000000 0.000000 0.000000 
0.794812 71.897453 9.883364 14.705776 18.095070 -7.396309 15.387839 3.856609 -0.809043 15.162132 10.146925 -8.759231 4.115631 12.260397 -5.048128 6.166203 -0.907296 -1.217028 -17.231794 0.765255 2.352837 0.000002 -0.000001 0.000000 0.198132 5.734726 -4.147591 9.782883 19.269060 -63.122723 39.014901 -24.686896 -10.277407 -5.342982 3.652931 -10.123595 13.337035 -0.108504 -22.431666 1.746744 -0.470247 -54.002238 -1.517867 -2.239421 -63.569056 -0.000000 0.000004 -0.000002 13.877730 19.650907 -6.275562 -4.091962 9.062861 4.576570 12.615564 -11.119277 13.986995 0.000003 0.000001 0.000006 14.060462 22.033430 1.227623 -51.263114 67.656500 52.750616 -332.730917 39.811141 349.736312 -28.520671 -18.709712 9.224105 55.149533 18.649567 -29.698308 -0.442537 -14.180550 7.313159 21.666986 -29.244469 9.142358 -0.000000 0.000000 0.000001 5.673387 7.585021 36.844158 1.050461 3.824500 68.900250 0.499583 3.026031 62.196454 -0.000001 0.000003 0.000001 -67.364947 -7.744414 -14.219877 39.358279 -27.142731 9.716394 17.010021 9.335751 -11.509809 -0.629363 -4.213384 0.674242 -0.000000 -0.000002 -0.000000 7.878351 -46.800777 -12.383444 38.246512 0.025059 -3.356601 -27.240719 -4.196298 19.745645 -15.231880 -6.115942 17.745528 0.000000 -0.000001 0.000000 
0.861550 72.488304 9.323823 12.903324 14.081214 -6.505661 14.920721 3.550897 -0.850395 14.234544 9.815831 -8.876025 3.205639 11.957540 -5.228550 8.001335 -0.114163 -0.626980 -19.460715 0.638238 1.610244 -0.000001 -0.000001 -0.000001 0.233874 5.172578 -4.324278 8.393685 18.273638 -62.557231 38.905253 -22.669835 -11.629006 -8.391696 1.303746 -4.445301 13.119328 0.045710 -22.264962 1.750283 -0.462755 -53.866058 -1.517401 -2.239198 -63.543074 -0.000000 -0.000000 0.000000 14.045932 19.739110 -6.223026 -4.092985 9.062167 4.569287 12.602352 -11.118985 13.980382 -0.000000 0.000001 0.000000 14.506733 21.194629 1.493468 -56.099195 68.419289 59.923346 -331.593007 38.549939 350.506894 -20.477380 -11.804184 4.651290 55.149533 18.649563 -29.698305 -0.442542 -14.180553 7.313161 21.666986 -29.244469 9.142359 -0.000000 -0.000000 0.000001 5.673391 7.585018 36.844151 1.050461 3.824502 68.900244 0.499580 3.026035 62.196447 -0.000000 0.000001 0.000002 -65.042949 -5.844768 -11.087166 39.552833 -26.753089 10.031605 16.408464 9.598467 -11.043145 -0.630313 -4.213413 0.673496 0.000000 0.000001 -0.000000 7.820567 -43.494832 -12.908687 36.812913 -1.824994 -3.077997 -27.511112 -4.808765 20.134110 -14.128685 -5.198124 16.934110 0.000000 0.000002 -0.000000 
0.807361 73.093338 8.745296 10.784953 9.561356 -5.771065 14.549025 3.235360 -0.907845 13.497639 9.477833 -9.010537 2.486914 11.651177 -5.427637 9.895993 0.801244 0.699122 -21.919708 1.318268 0.712508 0.000001 -0.000002 0.000001 0.266057 4.724175 -4.503665 6.496239 17.152531 -61.408537 36.127524 -20.226009 -10.727946 -16.293633 0.587777 -6.679990 12.827526 0.208527 -21.996669 1.755603 -0.439269 -53.540442 -1.508869 -2.235004 -63.294427 -0.000001 -0.000003 0.000003 14.216393 19.699147 -6.083424 -4.099908 9.059288 4.548913 12.568640 -11.122272 13.965719 -0.000000 -0.000001 0.000000 14.462345 20.621859 2.118071 -53.322071 68.500302 59.446872 -333.645561 40.618486 351.031671 -11.500389 -7.266521 2.939113 55.149526 18.649562 -29.698305 -0.442541 -14.180549 7.313162 21.666982 -29.244469 9.142362 -0.000000 0.000000 -0.000002 5.673390 7.585019 36.844151 1.050466 3.824502 68.900244 0.499583 3.026034 62.196454 0.000001 0.000000 -0.000002 -62.525601 -3.831617 -7.459902 40.100700 -26.275953 10.338856 15.423844 9.929752 -10.663922 -0.631720 -4.213420 0.671998 0.000000 -0.000000 -0.000000 8.507608 -40.239814 -12.849099 34.673763 -4.121454 -3.214500 -27.566703 -5.377889 20.948508 -12.619188 -4.121248 15.836501 -0.000000 0.000002 0.000000 
0.631353 73.621796 8.128786 8.878411 5.129662 -4.981392 14.160036 2.839748 -0.955270 12.714401 8.951159 -9.095688 1.726952 11.150276 -5.614510 11.905092 1.807764 1.832204 -23.653447 2.693178 -0.423598 -0.000002 -0.000001 0.000000 0.314421 4.265710 -4.792538 4.824081 16.530823 -59.773793 32.347701 -19.003905 -8.911097 -23.729045 4.605146 -11.127349 12.470009 0.369893 -21.634192 1.759700 -0.401957 -53.027468 -1.492505 -2.226793 -62.824340 0.000001 -0.000000 -0.000001 14.387317 19.530163 -5.865214 -4.113100 9.051315 4.518395 12.518489 -11.127664 13.941768 -0.000002 0.000004 -0.000002 13.862284 20.349753 3.310323 -44.449389 68.225715 52.463790 -339.475319 44.576338 353.287054 -2.172275 -4.063741 4.840677 55.149533 18.649560 -29.698311 -0.442539 -14.180551 7.313158 21.666982 -29.244469 9.142362 -0.000000 -0.000000 -0.000001 5.673390 7.585021 36.844151 1.050464 3.824497 68.900250 0.499586 3.026034 62.196454 0.000003 -0.000002 -0.000003 -60.170654 -1.424878 -3.979579 40.360602 -25.935661 10.626029 14.562935 10.163497 -10.459451 -0.633025 -4.213437 0.670479 0.000000 0.000001 0.000000 9.139616 -37.234667 -12.955006 32.333825 -6.624259 -3.340533 -27.521740 -6.030359 22.096830 -10.718653 -2.913065 14.324129 0.000000 0.000002 0.000000 
